HIERARCHY
ROOT Hips
{
	OFFSET 0.000000 0.000000 0.000000
	CHANNELS 6 Xposition Yposition Zposition Zrotation Yrotation Xrotation 
	JOINT LowerBack
	{
		OFFSET 0.000000 0.000000 0.000000
		CHANNELS 3 Zrotation Yrotation Xrotation
		JOINT Spine
		{
			OFFSET 0.028270 2.035590 -0.193380
			CHANNELS 3 Zrotation Yrotation Xrotation
			JOINT Spine1
			{
				OFFSET 0.056720 2.048850 -0.042750
				CHANNELS 3 Zrotation Yrotation Xrotation
				JOINT Neck
				{
					OFFSET 0.000000 0.000000 0.000000
					CHANNELS 3 Zrotation Yrotation Xrotation
					JOINT Neck1
					{
						OFFSET -0.054170 1.746240 0.172020
						CHANNELS 3 Zrotation Yrotation Xrotation
						JOINT Head
						{
							OFFSET 0.104070 1.761360 -0.123970
							CHANNELS 3 Zrotation Yrotation Xrotation
							End Site
							{
								OFFSET 0.000000 0.000000 0.000000
							}
						}
					}
				}
				JOINT LeftShoulder
				{
					OFFSET 0.000000 0.000000 0.000000
					CHANNELS 3 Zrotation Yrotation Xrotation
					JOINT LeftArm
					{
						OFFSET 3.362410 1.200890 -0.311210
						CHANNELS 3 Zrotation Yrotation Xrotation
						JOINT LeftForeArm
						{
							OFFSET 4.983000 -0.000000 -0.000000
							CHANNELS 3 Zrotation Yrotation Xrotation
							JOINT LeftHand
							{
								OFFSET 3.483560 -0.000000 -0.000000
								CHANNELS 3 Zrotation Yrotation Xrotation
								JOINT LeftFingerBase
								{
									OFFSET 0.000000 0.000000 0.000000
									CHANNELS 3 Zrotation Yrotation Xrotation
									JOINT LeftHandIndex1
									{
										OFFSET 0.715260 -0.000000 -0.000000
										CHANNELS 3 Zrotation Yrotation Xrotation
										End Site
										{
											OFFSET 0.000000 0.000000 0.000000
										}
									}
								}
								JOINT LThumb
								{
									OFFSET 0.000000 0.000000 0.000000
									CHANNELS 3 Zrotation Yrotation Xrotation
									End Site
									{
										OFFSET 0.000000 0.000000 0.000000
									}
								}
							}
						}
					}
				}
				JOINT RightShoulder
				{
					OFFSET 0.000000 0.000000 0.000000
					CHANNELS 3 Zrotation Yrotation Xrotation
					JOINT RightArm
					{
						OFFSET -3.136600 1.374050 -0.404650
						CHANNELS 3 Zrotation Yrotation Xrotation
						JOINT RightForeArm
						{
							OFFSET -5.241900 -0.000000 -0.000000
							CHANNELS 3 Zrotation Yrotation Xrotation
							JOINT RightHand
							{
								OFFSET -3.444170 -0.000000 -0.000000
								CHANNELS 3 Zrotation Yrotation Xrotation
								JOINT RightFingerBase
								{
									OFFSET 0.000000 0.000000 0.000000
									CHANNELS 3 Zrotation Yrotation Xrotation
									JOINT RightHandIndex1
									{
										OFFSET -0.622530 -0.000000 -0.000000
										CHANNELS 3 Zrotation Yrotation Xrotation
										End Site
										{
											OFFSET 0.000000 0.000000 0.000000
										}
									}
								}
								JOINT RThumb
								{
									OFFSET 0.000000 0.000000 0.000000
									CHANNELS 3 Zrotation Yrotation Xrotation
									End Site
									{
										OFFSET 0.000000 0.000000 0.000000
									}
								}
							}
						}
					}
				}
			}
		}
	}
}
}
MOTION
Frames: 10
Frame Time: 0.008333
26.564204 17.572087 2.136903 154.141831 -80.594805 -128.546110 -7.591110 3.125018 -9.090386 -1.863066 3.526544 -4.685793 -2.805805 3.208885 1.322575 3.254023 -6.757942 -10.101308 0.245336 0.051044 -0.602243 0.000000 0.000000 0.000000 4.959528 24.958351 2.832748 -39.352809 38.056389 -7.629132 -4.328991 -13.141928 0.014733 14.475219 -0.646984 -0.078521 -0.353565 -0.039296 -0.000000 0.000000 0.000000 0.000000 0.000000 0.000000 0.000000 -7.865186 -0.382953 -1.705723 20.616429 19.974302 -44.882424 0.597681 89.094908 -0.164178 -12.967252 10.704390 -1.317001 0.049708 -0.787661 -0.000000 0.000000 0.000000 0.000000 0.000000 0.000000 0.000000 
26.318343 17.715274 2.139518 151.657340 -80.775163 -126.280643 -7.962085 3.213627 -9.345047 -1.932264 3.657952 -4.730722 -2.747992 3.331627 1.390209 3.065575 -6.865216 -9.954045 0.391284 0.060567 -0.552806 0.000000 0.000000 0.000000 5.679479 25.175499 2.833647 -38.862164 38.584180 -8.529870 -4.351342 -13.388753 0.008891 13.773346 -0.017657 0.002358 -0.360153 -0.033170 -0.000000 0.000000 0.000000 0.000000 0.000000 0.000000 0.000000 -8.729766 -0.637098 -1.932415 20.409489 19.802733 -47.138620 -179.263449 89.676644 179.821157 -13.934888 10.684018 -1.416167 0.059131 -0.802788 -0.000000 0.000000 0.000000 0.000000 0.000000 0.000000 0.000000 
26.074888 17.850041 2.144998 149.423507 -80.967630 -124.278459 -8.236806 3.292555 -9.561734 -1.976339 3.775439 -4.765265 -2.679704 3.442492 1.454225 2.832222 -6.972335 -9.808437 0.539706 0.070436 -0.505001 0.000000 0.000000 0.000000 6.383344 25.396541 2.849024 -38.547562 39.035623 -9.603435 -4.384846 -13.594104 0.002263 12.821760 0.716454 0.086324 -0.363823 -0.026992 -0.000000 0.000000 0.000000 0.000000 0.000000 0.000000 0.000000 -9.645349 -0.910322 -2.169862 20.230992 19.812676 -49.329318 -179.120779 88.581397 179.806269 -14.911814 10.609775 -1.509141 0.069128 -0.816528 -0.000000 0.000000 0.000000 0.000000 0.000000 0.000000 0.000000 
25.834506 17.975503 2.153334 147.467087 -81.180453 -122.555154 -8.412641 3.365181 -9.745047 -1.994420 3.881455 -4.790263 -2.598952 3.543761 1.513193 2.551675 -7.080114 -9.671008 0.690556 0.080718 -0.460677 0.000000 0.000000 0.000000 7.051518 25.628117 2.877777 -38.383558 39.402690 -10.830618 -4.425668 -13.766504 -0.004658 11.688614 1.515316 0.162481 -0.364443 -0.020915 0.000000 0.000000 0.000000 0.000000 0.000000 0.000000 0.000000 -10.615179 -1.195523 -2.413836 20.067371 19.975431 -51.447706 -178.975795 87.596742 179.791618 -15.861509 10.488509 -1.591722 0.079280 -0.828912 -0.000000 0.000000 0.000000 0.000000 0.000000 0.000000 0.000000 
25.597586 18.090827 2.164003 145.730389 -81.406641 -121.053107 -8.509732 3.433081 -9.891506 -1.990741 3.978039 -4.805576 -2.505042 3.637281 1.566129 2.228446 -7.189360 -9.548505 0.843428 0.091473 -0.421793 0.000000 0.000000 0.000000 7.665809 25.877559 2.918424 -38.333813 39.677425 -12.149527 -4.468484 -13.924344 -0.011366 10.461303 2.335012 0.222833 -0.362224 -0.015094 -0.000000 0.000000 0.000000 0.000000 0.000000 0.000000 0.000000 -11.632968 -1.485662 -2.659742 19.906785 20.257997 -53.485073 -178.828758 86.701337 179.777515 -16.762948 10.330561 -1.662008 0.089341 -0.839982 -0.000000 0.000000 0.000000 0.000000 0.000000 0.000000 0.000000 
25.363917 18.195281 2.177110 144.253025 -81.650849 -119.805332 -8.528113 3.499917 -10.007895 -1.965667 4.068051 -4.812846 -2.397568 3.725650 1.612607 1.866188 -7.290983 -9.444858 0.996767 0.102604 -0.389355 0.000000 0.000000 0.000000 8.204873 26.151429 2.968899 -38.361978 39.857148 -13.509092 -4.507759 -14.085841 -0.017427 9.232414 3.123913 0.263086 -0.357857 -0.009428 -0.000000 0.000000 0.000000 0.000000 0.000000 0.000000 0.000000 -12.690781 -1.763257 -2.902582 19.731867 20.609344 -55.426941 -178.680775 85.874557 179.764081 -17.616061 10.150699 -1.721697 0.099478 -0.849771 0.000000 0.000000 0.000000 0.000000 0.000000 0.000000 0.000000 
25.133354 18.288691 2.193108 143.157249 -81.940501 -118.928289 -8.443585 3.569250 -10.096167 -1.914464 4.152156 -4.811926 -2.277769 3.809447 1.652546 1.470611 -7.381180 -9.363653 1.147515 0.113896 -0.364349 0.000000 0.000000 0.000000 8.625113 26.464442 3.024973 -38.415756 39.936076 -14.820285 -4.538885 -14.275780 -0.022504 8.098692 3.828163 0.283344 -0.352457 -0.003879 -0.000000 0.000000 0.000000 0.000000 0.000000 0.000000 0.000000 -13.771076 -2.016766 -3.138890 19.514947 20.989277 -57.257561 -178.534023 85.099332 179.751230 -18.442998 9.967563 -1.775591 0.110294 -0.858264 0.000000 0.000000 0.000000 0.000000 0.000000 0.000000 0.000000 
24.905651 18.370228 2.210906 142.296087 -82.243600 -118.287121 -8.307239 3.639603 -10.151324 -1.849146 4.231930 -4.803497 -2.147597 3.889994 1.686208 1.057283 -7.447986 -9.305994 1.293799 0.125218 -0.347027 0.000000 0.000000 0.000000 8.924093 26.818477 3.084774 -38.461462 39.911926 -16.024625 -4.557245 -14.506600 -0.026399 7.142672 4.392840 0.287610 -0.347038 0.001900 -0.000000 0.000000 0.000000 0.000000 0.000000 0.000000 0.000000 -14.851063 -2.230478 -3.365121 19.251951 21.349529 -58.963002 -178.386681 84.360727 179.738563 -19.286110 9.804378 -1.832085 0.122438 -0.865577 0.000000 0.000000 0.000000 0.000000 0.000000 0.000000 0.000000 
24.680071 18.440008 2.231264 141.831938 -82.595762 -118.038293 -8.083973 3.713335 -10.178178 -1.763285 4.306472 -4.787845 -2.009628 3.966486 1.713718 0.633001 -7.482626 -9.270922 1.431366 0.136177 -0.336998 0.000000 0.000000 0.000000 9.059194 27.226102 3.143095 -38.453973 39.781195 -17.067102 -4.561084 -14.790889 -0.029059 6.432681 4.773498 0.282289 -0.342827 0.008110 -0.000000 0.000000 0.000000 0.000000 0.000000 0.000000 0.000000 -15.908517 -2.391300 -3.579983 18.918526 21.653282 -60.526397 -178.240791 83.644713 179.725672 -20.198072 9.683323 -1.900479 0.137029 -0.871698 0.000000 0.000000 0.000000 0.000000 0.000000 0.000000 0.000000 
24.456339 18.497527 2.252967 141.602577 -82.964401 -118.033235 -7.825574 3.786489 -10.169866 -1.669310 4.375322 -4.765112 -1.867659 4.038229 1.735561 0.215854 -7.477123 -9.256864 1.557891 0.146573 -0.333723 0.000000 0.000000 0.000000 9.031490 27.687262 3.197274 -38.369929 39.539556 -17.918231 -4.548816 -15.128380 -0.030540 6.016994 4.940211 0.273779 -0.340620 0.014984 -0.000000 0.000000 0.000000 0.000000 0.000000 0.000000 0.000000 -16.915576 -2.491708 -3.782318 18.517719 21.873125 -61.937751 -178.094320 82.940277 179.712032 -21.234251 9.625675 -1.991072 0.154868 -0.876730 0.000000 0.000000 0.000000 0.000000 0.000000 0.000000 0.000000 
